# xmcd
#
# Track frame offsets:
#   150
#   15945
#   30757
#   46238
#   60399
#   79513
#   97516
#   118626
#   139687
#   156300
#   172610
#   189122
#   202848
#   225692
#   245792
#   263318
#   281812
#   299376
#   318964
#   333944
#
# Disc length: 4679 seconds
#
# Revision: 0
# Processed by: cddbd v1.5.2PL0 Copyright (c) Steve Scherf et al.
# Submitted via: GXTranscoder 2.0.1939
#
DISCID=ec124514
DTITLE=Katie Melua - Piece by Piece
DYEAR=1900
DGENRE=Blues
TTITLE0=Shy Boy
TTITLE1=9 Million Bicycles
TTITLE2=Piece by Piece
TTITLE3=Haltway up the Hindukush
TTITLE4=Blues in the Night
TTITLE5=Spiders Web
TTITLE6=Blue Shoes
TTITLE7=On the Road Again
TTITLE8=Thank You Stars
TTITLE9=Just Like Heaven
TTITLE10=I Cried For Love
TTITLE11=I Do Believe in Love
TTITLE12=
TTITLE13=
TTITLE14=
TTITLE15=
TTITLE16=
TTITLE17=
TTITLE18=
TTITLE19=
EXTD=
EXTT0=
EXTT1=
EXTT2=
EXTT3=
EXTT4=
EXTT5=
EXTT6=
EXTT7=
EXTT8=
EXTT9=
EXTT10=
EXTT11=
EXTT12=
EXTT13=
EXTT14=
EXTT15=
EXTT16=
EXTT17=
EXTT18=
EXTT19=
PLAYORDER=
